  0
SECTION
  2
BLOCKS
  0
ENDSEC
  0
SECTION
  2
ENTITIES
  0
LINE
  8
0
 10
297
 20
210
 11
0
 21
210
  0
LINE
  8
0
 10
0
 20
210
 11
0
 21
0
  0
LINE
  8
0
 10
0
 20
0
 11
297
 21
0
  0
LINE
  8
0
 10
297
 20
0
 11
297
 21
210
  0
LINE
  8
0
 10
246.955
 20
145.055
 11
244.91
 21
145.489
  0
LINE
  8
0
 10
244.91
 20
145.489
 11
243
 21
146.34
  0
LINE
  8
0
 10
243
 20
146.34
 11
241.309
 21
147.569
  0
LINE
  8
0
 10
241.309
 20
147.569
 11
239.91
 21
149.122
  0
LINE
  8
0
 10
239.91
 20
149.122
 11
238.865
 21
150.933
  0
LINE
  8
0
 10
238.865
 20
150.933
 11
238.219
 21
152.921
  0
LINE
  8
0
 10
238.219
 20
152.921
 11
238
 21
155
  0
LINE
  8
0
 10
238
 20
155
 11
238.219
 21
157.079
  0
LINE
  8
0
 10
238.219
 20
157.079
 11
238.865
 21
159.067
  0
LINE
  8
0
 10
238.865
 20
159.067
 11
239.91
 21
160.878
  0
LINE
  8
0
 10
239.91
 20
160.878
 11
241.309
 21
162.431
  0
LINE
  8
0
 10
241.309
 20
162.431
 11
243
 21
163.66
  0
LINE
  8
0
 10
243
 20
163.66
 11
244.91
 21
164.511
  0
LINE
  8
0
 10
244.91
 20
164.511
 11
246.955
 21
164.945
  0
LINE
  8
0
 10
246.955
 20
164.945
 11
249.045
 21
164.945
  0
LINE
  8
0
 10
249.045
 20
164.945
 11
251.09
 21
164.511
  0
LINE
  8
0
 10
251.09
 20
164.511
 11
253
 21
163.66
  0
LINE
  8
0
 10
253
 20
163.66
 11
254.691
 21
162.431
  0
LINE
  8
0
 10
254.691
 20
162.431
 11
256.09
 21
160.878
  0
LINE
  8
0
 10
256.09
 20
160.878
 11
257.135
 21
159.067
  0
LINE
  8
0
 10
257.135
 20
159.067
 11
257.781
 21
157.079
  0
LINE
  8
0
 10
257.781
 20
157.079
 11
258
 21
155
  0
LINE
  8
0
 10
258
 20
155
 11
257.781
 21
152.921
  0
LINE
  8
0
 10
257.781
 20
152.921
 11
257.135
 21
150.933
  0
LINE
  8
0
 10
257.135
 20
150.933
 11
256.09
 21
149.122
  0
LINE
  8
0
 10
256.09
 20
149.122
 11
254.691
 21
147.569
  0
LINE
  8
0
 10
254.691
 20
147.569
 11
253
 21
146.34
  0
LINE
  8
0
 10
253
 20
146.34
 11
251.09
 21
145.489
  0
LINE
  8
0
 10
251.09
 20
145.489
 11
249.045
 21
145.055
  0
LINE
  8
0
 10
249.045
 20
145.055
 11
246.955
 21
145.055
  0
LINE
  8
0
 10
221.955
 20
135.055
 11
219.91
 21
135.489
  0
LINE
  8
0
 10
219.91
 20
135.489
 11
218
 21
136.34
  0
LINE
  8
0
 10
218
 20
136.34
 11
216.309
 21
137.569
  0
LINE
  8
0
 10
216.309
 20
137.569
 11
214.91
 21
139.122
  0
LINE
  8
0
 10
214.91
 20
139.122
 11
213.865
 21
140.933
  0
LINE
  8
0
 10
213.865
 20
140.933
 11
213.219
 21
142.921
  0
LINE
  8
0
 10
213.219
 20
142.921
 11
213
 21
145
  0
LINE
  8
0
 10
213
 20
145
 11
213.219
 21
147.079
  0
LINE
  8
0
 10
213.219
 20
147.079
 11
213.865
 21
149.067
  0
LINE
  8
0
 10
213.865
 20
149.067
 11
214.91
 21
150.878
  0
LINE
  8
0
 10
214.91
 20
150.878
 11
216.309
 21
152.431
  0
LINE
  8
0
 10
216.309
 20
152.431
 11
218
 21
153.66
  0
LINE
  8
0
 10
218
 20
153.66
 11
219.91
 21
154.511
  0
LINE
  8
0
 10
219.91
 20
154.511
 11
221.955
 21
154.945
  0
LINE
  8
0
 10
221.955
 20
154.945
 11
224.045
 21
154.945
  0
LINE
  8
0
 10
224.045
 20
154.945
 11
226.09
 21
154.511
  0
LINE
  8
0
 10
226.09
 20
154.511
 11
228
 21
153.66
  0
LINE
  8
0
 10
228
 20
153.66
 11
229.691
 21
152.431
  0
LINE
  8
0
 10
229.691
 20
152.431
 11
231.09
 21
150.878
  0
LINE
  8
0
 10
231.09
 20
150.878
 11
232.135
 21
149.067
  0
LINE
  8
0
 10
232.135
 20
149.067
 11
232.781
 21
147.079
  0
LINE
  8
0
 10
232.781
 20
147.079
 11
233
 21
145
  0
LINE
  8
0
 10
233
 20
145
 11
232.781
 21
142.921
  0
LINE
  8
0
 10
232.781
 20
142.921
 11
232.135
 21
140.933
  0
LINE
  8
0
 10
232.135
 20
140.933
 11
231.09
 21
139.122
  0
LINE
  8
0
 10
231.09
 20
139.122
 11
229.691
 21
137.569
  0
LINE
  8
0
 10
229.691
 20
137.569
 11
228
 21
136.34
  0
LINE
  8
0
 10
228
 20
136.34
 11
226.09
 21
135.489
  0
LINE
  8
0
 10
226.09
 20
135.489
 11
224.045
 21
135.055
  0
LINE
  8
0
 10
224.045
 20
135.055
 11
221.955
 21
135.055
  0
LINE
  8
0
 10
271.955
 20
135.055
 11
269.91
 21
135.489
  0
LINE
  8
0
 10
269.91
 20
135.489
 11
268
 21
136.34
  0
LINE
  8
0
 10
268
 20
136.34
 11
266.309
 21
137.569
  0
LINE
  8
0
 10
266.309
 20
137.569
 11
264.91
 21
139.122
  0
LINE
  8
0
 10
264.91
 20
139.122
 11
263.865
 21
140.933
  0
LINE
  8
0
 10
263.865
 20
140.933
 11
263.219
 21
142.921
  0
LINE
  8
0
 10
263.219
 20
142.921
 11
263
 21
145
  0
LINE
  8
0
 10
263
 20
145
 11
263.219
 21
147.079
  0
LINE
  8
0
 10
263.219
 20
147.079
 11
263.865
 21
149.067
  0
LINE
  8
0
 10
263.865
 20
149.067
 11
264.91
 21
150.878
  0
LINE
  8
0
 10
264.91
 20
150.878
 11
266.309
 21
152.431
  0
LINE
  8
0
 10
266.309
 20
152.431
 11
268
 21
153.66
  0
LINE
  8
0
 10
268
 20
153.66
 11
269.91
 21
154.511
  0
LINE
  8
0
 10
269.91
 20
154.511
 11
271.955
 21
154.945
  0
LINE
  8
0
 10
271.955
 20
154.945
 11
274.045
 21
154.945
  0
LINE
  8
0
 10
274.045
 20
154.945
 11
276.09
 21
154.511
  0
LINE
  8
0
 10
276.09
 20
154.511
 11
278
 21
153.66
  0
LINE
  8
0
 10
278
 20
153.66
 11
279.691
 21
152.431
  0
LINE
  8
0
 10
279.691
 20
152.431
 11
281.09
 21
150.878
  0
LINE
  8
0
 10
281.09
 20
150.878
 11
282.135
 21
149.067
  0
LINE
  8
0
 10
282.135
 20
149.067
 11
282.781
 21
147.079
  0
LINE
  8
0
 10
282.781
 20
147.079
 11
283
 21
145
  0
LINE
  8
0
 10
283
 20
145
 11
282.781
 21
142.921
  0
LINE
  8
0
 10
282.781
 20
142.921
 11
282.135
 21
140.933
  0
LINE
  8
0
 10
282.135
 20
140.933
 11
281.09
 21
139.122
  0
LINE
  8
0
 10
281.09
 20
139.122
 11
279.691
 21
137.569
  0
LINE
  8
0
 10
279.691
 20
137.569
 11
278
 21
136.34
  0
LINE
  8
0
 10
278
 20
136.34
 11
276.09
 21
135.489
  0
LINE
  8
0
 10
276.09
 20
135.489
 11
274.045
 21
135.055
  0
LINE
  8
0
 10
274.045
 20
135.055
 11
271.955
 21
135.055
  0
LINE
  8
0
 10
196.955
 20
125.055
 11
194.91
 21
125.489
  0
LINE
  8
0
 10
194.91
 20
125.489
 11
193
 21
126.34
  0
LINE
  8
0
 10
193
 20
126.34
 11
191.309
 21
127.569
  0
LINE
  8
0
 10
191.309
 20
127.569
 11
189.91
 21
129.122
  0
LINE
  8
0
 10
189.91
 20
129.122
 11
188.865
 21
130.933
  0
LINE
  8
0
 10
188.865
 20
130.933
 11
188.219
 21
132.921
  0
LINE
  8
0
 10
188.219
 20
132.921
 11
188
 21
135
  0
LINE
  8
0
 10
188
 20
135
 11
188.219
 21
137.079
  0
LINE
  8
0
 10
188.219
 20
137.079
 11
188.865
 21
139.067
  0
LINE
  8
0
 10
188.865
 20
139.067
 11
189.91
 21
140.878
  0
LINE
  8
0
 10
189.91
 20
140.878
 11
191.309
 21
142.431
  0
LINE
  8
0
 10
191.309
 20
142.431
 11
193
 21
143.66
  0
LINE
  8
0
 10
193
 20
143.66
 11
194.91
 21
144.511
  0
LINE
  8
0
 10
194.91
 20
144.511
 11
196.955
 21
144.945
  0
LINE
  8
0
 10
196.955
 20
144.945
 11
199.045
 21
144.945
  0
LINE
  8
0
 10
199.045
 20
144.945
 11
201.09
 21
144.511
  0
LINE
  8
0
 10
201.09
 20
144.511
 11
203
 21
143.66
  0
LINE
  8
0
 10
203
 20
143.66
 11
204.691
 21
142.431
  0
LINE
  8
0
 10
204.691
 20
142.431
 11
206.09
 21
140.878
  0
LINE
  8
0
 10
206.09
 20
140.878
 11
207.135
 21
139.067
  0
LINE
  8
0
 10
207.135
 20
139.067
 11
207.781
 21
137.079
  0
LINE
  8
0
 10
207.781
 20
137.079
 11
208
 21
135
  0
LINE
  8
0
 10
208
 20
135
 11
207.781
 21
132.921
  0
LINE
  8
0
 10
207.781
 20
132.921
 11
207.135
 21
130.933
  0
LINE
  8
0
 10
207.135
 20
130.933
 11
206.09
 21
129.122
  0
LINE
  8
0
 10
206.09
 20
129.122
 11
204.691
 21
127.569
  0
LINE
  8
0
 10
204.691
 20
127.569
 11
203
 21
126.34
  0
LINE
  8
0
 10
203
 20
126.34
 11
201.09
 21
125.489
  0
LINE
  8
0
 10
201.09
 20
125.489
 11
199.045
 21
125.055
  0
LINE
  8
0
 10
199.045
 20
125.055
 11
196.955
 21
125.055
  0
LINE
  8
0
 10
246.955
 20
115.055
 11
244.91
 21
115.489
  0
LINE
  8
0
 10
244.91
 20
115.489
 11
243
 21
116.34
  0
LINE
  8
0
 10
243
 20
116.34
 11
241.309
 21
117.569
  0
LINE
  8
0
 10
241.309
 20
117.569
 11
239.91
 21
119.122
  0
LINE
  8
0
 10
239.91
 20
119.122
 11
238.865
 21
120.933
  0
LINE
  8
0
 10
238.865
 20
120.933
 11
238.219
 21
122.921
  0
LINE
  8
0
 10
238.219
 20
122.921
 11
238
 21
125
  0
LINE
  8
0
 10
238
 20
125
 11
238.219
 21
127.079
  0
LINE
  8
0
 10
238.219
 20
127.079
 11
238.865
 21
129.067
  0
LINE
  8
0
 10
238.865
 20
129.067
 11
239.91
 21
130.878
  0
LINE
  8
0
 10
239.91
 20
130.878
 11
241.309
 21
132.431
  0
LINE
  8
0
 10
241.309
 20
132.431
 11
243
 21
133.66
  0
LINE
  8
0
 10
243
 20
133.66
 11
244.91
 21
134.511
  0
LINE
  8
0
 10
244.91
 20
134.511
 11
246.955
 21
134.945
  0
LINE
  8
0
 10
246.955
 20
134.945
 11
249.045
 21
134.945
  0
LINE
  8
0
 10
249.045
 20
134.945
 11
251.09
 21
134.511
  0
LINE
  8
0
 10
251.09
 20
134.511
 11
253
 21
133.66
  0
LINE
  8
0
 10
253
 20
133.66
 11
254.691
 21
132.431
  0
LINE
  8
0
 10
254.691
 20
132.431
 11
256.09
 21
130.878
  0
LINE
  8
0
 10
256.09
 20
130.878
 11
257.135
 21
129.067
  0
LINE
  8
0
 10
257.135
 20
129.067
 11
257.781
 21
127.079
  0
LINE
  8
0
 10
257.781
 20
127.079
 11
258
 21
125
  0
LINE
  8
0
 10
258
 20
125
 11
257.781
 21
122.921
  0
LINE
  8
0
 10
257.781
 20
122.921
 11
257.135
 21
120.933
  0
LINE
  8
0
 10
257.135
 20
120.933
 11
256.09
 21
119.122
  0
LINE
  8
0
 10
256.09
 20
119.122
 11
254.691
 21
117.569
  0
LINE
  8
0
 10
254.691
 20
117.569
 11
253
 21
116.34
  0
LINE
  8
0
 10
253
 20
116.34
 11
251.09
 21
115.489
  0
LINE
  8
0
 10
251.09
 20
115.489
 11
249.045
 21
115.055
  0
LINE
  8
0
 10
249.045
 20
115.055
 11
246.955
 21
115.055
  0
LINE
  8
0
 10
49.25
 20
80
 11
49.25
 21
130
  0
LINE
  8
0
 10
49.25
 20
130
 11
99.25
 21
130
  0
LINE
  8
0
 10
99.25
 20
130
 11
99.25
 21
80
  0
LINE
  8
0
 10
99.25
 20
80
 11
49.25
 21
80
  0
LINE
  8
0
 10
221.955
 20
105.055
 11
219.91
 21
105.489
  0
LINE
  8
0
 10
219.91
 20
105.489
 11
218
 21
106.34
  0
LINE
  8
0
 10
218
 20
106.34
 11
216.309
 21
107.569
  0
LINE
  8
0
 10
216.309
 20
107.569
 11
214.91
 21
109.122
  0
LINE
  8
0
 10
214.91
 20
109.122
 11
213.865
 21
110.933
  0
LINE
  8
0
 10
213.865
 20
110.933
 11
213.219
 21
112.921
  0
LINE
  8
0
 10
213.219
 20
112.921
 11
213
 21
115
  0
LINE
  8
0
 10
213
 20
115
 11
213.219
 21
117.079
  0
LINE
  8
0
 10
213.219
 20
117.079
 11
213.865
 21
119.067
  0
LINE
  8
0
 10
213.865
 20
119.067
 11
214.91
 21
120.878
  0
LINE
  8
0
 10
214.91
 20
120.878
 11
216.309
 21
122.431
  0
LINE
  8
0
 10
216.309
 20
122.431
 11
218
 21
123.66
  0
LINE
  8
0
 10
218
 20
123.66
 11
219.91
 21
124.511
  0
LINE
  8
0
 10
219.91
 20
124.511
 11
221.955
 21
124.945
  0
LINE
  8
0
 10
221.955
 20
124.945
 11
224.045
 21
124.945
  0
LINE
  8
0
 10
224.045
 20
124.945
 11
226.09
 21
124.511
  0
LINE
  8
0
 10
226.09
 20
124.511
 11
228
 21
123.66
  0
LINE
  8
0
 10
228
 20
123.66
 11
229.691
 21
122.431
  0
LINE
  8
0
 10
229.691
 20
122.431
 11
231.09
 21
120.878
  0
LINE
  8
0
 10
231.09
 20
120.878
 11
232.135
 21
119.067
  0
LINE
  8
0
 10
232.135
 20
119.067
 11
232.781
 21
117.079
  0
LINE
  8
0
 10
232.781
 20
117.079
 11
233
 21
115
  0
LINE
  8
0
 10
233
 20
115
 11
232.781
 21
112.921
  0
LINE
  8
0
 10
232.781
 20
112.921
 11
232.135
 21
110.933
  0
LINE
  8
0
 10
232.135
 20
110.933
 11
231.09
 21
109.122
  0
LINE
  8
0
 10
231.09
 20
109.122
 11
229.691
 21
107.569
  0
LINE
  8
0
 10
229.691
 20
107.569
 11
228
 21
106.34
  0
LINE
  8
0
 10
228
 20
106.34
 11
226.09
 21
105.489
  0
LINE
  8
0
 10
226.09
 20
105.489
 11
224.045
 21
105.055
  0
LINE
  8
0
 10
224.045
 20
105.055
 11
221.955
 21
105.055
  0
LINE
  8
0
 10
271.955
 20
105.055
 11
269.91
 21
105.489
  0
LINE
  8
0
 10
269.91
 20
105.489
 11
268
 21
106.34
  0
LINE
  8
0
 10
268
 20
106.34
 11
266.309
 21
107.569
  0
LINE
  8
0
 10
266.309
 20
107.569
 11
264.91
 21
109.122
  0
LINE
  8
0
 10
264.91
 20
109.122
 11
263.865
 21
110.933
  0
LINE
  8
0
 10
263.865
 20
110.933
 11
263.219
 21
112.921
  0
LINE
  8
0
 10
263.219
 20
112.921
 11
263
 21
115
  0
LINE
  8
0
 10
263
 20
115
 11
263.219
 21
117.079
  0
LINE
  8
0
 10
263.219
 20
117.079
 11
263.865
 21
119.067
  0
LINE
  8
0
 10
263.865
 20
119.067
 11
264.91
 21
120.878
  0
LINE
  8
0
 10
264.91
 20
120.878
 11
266.309
 21
122.431
  0
LINE
  8
0
 10
266.309
 20
122.431
 11
268
 21
123.66
  0
LINE
  8
0
 10
268
 20
123.66
 11
269.91
 21
124.511
  0
LINE
  8
0
 10
269.91
 20
124.511
 11
271.955
 21
124.945
  0
LINE
  8
0
 10
271.955
 20
124.945
 11
274.045
 21
124.945
  0
LINE
  8
0
 10
274.045
 20
124.945
 11
276.09
 21
124.511
  0
LINE
  8
0
 10
276.09
 20
124.511
 11
278
 21
123.66
  0
LINE
  8
0
 10
278
 20
123.66
 11
279.691
 21
122.431
  0
LINE
  8
0
 10
279.691
 20
122.431
 11
281.09
 21
120.878
  0
LINE
  8
0
 10
281.09
 20
120.878
 11
282.135
 21
119.067
  0
LINE
  8
0
 10
282.135
 20
119.067
 11
282.781
 21
117.079
  0
LINE
  8
0
 10
282.781
 20
117.079
 11
283
 21
115
  0
LINE
  8
0
 10
283
 20
115
 11
282.781
 21
112.921
  0
LINE
  8
0
 10
282.781
 20
112.921
 11
282.135
 21
110.933
  0
LINE
  8
0
 10
282.135
 20
110.933
 11
281.09
 21
109.122
  0
LINE
  8
0
 10
281.09
 20
109.122
 11
279.691
 21
107.569
  0
LINE
  8
0
 10
279.691
 20
107.569
 11
278
 21
106.34
  0
LINE
  8
0
 10
278
 20
106.34
 11
276.09
 21
105.489
  0
LINE
  8
0
 10
276.09
 20
105.489
 11
274.045
 21
105.055
  0
LINE
  8
0
 10
274.045
 20
105.055
 11
271.955
 21
105.055
  0
LINE
  8
0
 10
196.955
 20
95.0548
 11
194.91
 21
95.4894
  0
LINE
  8
0
 10
194.91
 20
95.4894
 11
193
 21
96.3398
  0
LINE
  8
0
 10
193
 20
96.3398
 11
191.309
 21
97.5686
  0
LINE
  8
0
 10
191.309
 20
97.5686
 11
189.91
 21
99.1222
  0
LINE
  8
0
 10
189.91
 20
99.1222
 11
188.865
 21
100.933
  0
LINE
  8
0
 10
188.865
 20
100.933
 11
188.219
 21
102.921
  0
LINE
  8
0
 10
188.219
 20
102.921
 11
188
 21
105
  0
LINE
  8
0
 10
188
 20
105
 11
188.219
 21
107.079
  0
LINE
  8
0
 10
188.219
 20
107.079
 11
188.865
 21
109.067
  0
LINE
  8
0
 10
188.865
 20
109.067
 11
189.91
 21
110.878
  0
LINE
  8
0
 10
189.91
 20
110.878
 11
191.309
 21
112.431
  0
LINE
  8
0
 10
191.309
 20
112.431
 11
193
 21
113.66
  0
LINE
  8
0
 10
193
 20
113.66
 11
194.91
 21
114.511
  0
LINE
  8
0
 10
194.91
 20
114.511
 11
196.955
 21
114.945
  0
LINE
  8
0
 10
196.955
 20
114.945
 11
199.045
 21
114.945
  0
LINE
  8
0
 10
199.045
 20
114.945
 11
201.09
 21
114.511
  0
LINE
  8
0
 10
201.09
 20
114.511
 11
203
 21
113.66
  0
LINE
  8
0
 10
203
 20
113.66
 11
204.691
 21
112.431
  0
LINE
  8
0
 10
204.691
 20
112.431
 11
206.09
 21
110.878
  0
LINE
  8
0
 10
206.09
 20
110.878
 11
207.135
 21
109.067
  0
LINE
  8
0
 10
207.135
 20
109.067
 11
207.781
 21
107.079
  0
LINE
  8
0
 10
207.781
 20
107.079
 11
208
 21
105
  0
LINE
  8
0
 10
208
 20
105
 11
207.781
 21
102.921
  0
LINE
  8
0
 10
207.781
 20
102.921
 11
207.135
 21
100.933
  0
LINE
  8
0
 10
207.135
 20
100.933
 11
206.09
 21
99.1222
  0
LINE
  8
0
 10
206.09
 20
99.1222
 11
204.691
 21
97.5686
  0
LINE
  8
0
 10
204.691
 20
97.5686
 11
203
 21
96.3398
  0
LINE
  8
0
 10
203
 20
96.3398
 11
201.09
 21
95.4894
  0
LINE
  8
0
 10
201.09
 20
95.4894
 11
199.045
 21
95.0548
  0
LINE
  8
0
 10
199.045
 20
95.0548
 11
196.955
 21
95.0548
  0
ENDSEC
  0
SECTION
  2
OBJECTS
  0
DICTIONARY
  0
ENDSEC
  0
EOF
