<?xml version="1.0" standalone="no"?>
<!DOCTYPE svg PUBLIC "-//W3C//DTD SVG 1.1//EN" "http://www.w3.org/Graphics/SVG/1.1/DTD/svg11.dtd">
<svg width="297" height="210" viewBox="0 -210 297 210" xmlns="http://www.w3.org/2000/svg" version="1.1">
<title>OpenSCAD Model</title>
<path d="
M 297,-210 L 0,-210 L 0,-0 L 297,-0 z
M 246.955,-145.055 L 244.91,-145.489 L 243,-146.34 L 241.309,-147.569 L 239.91,-149.122 L 238.865,-150.933
 L 238.219,-152.921 L 238,-155 L 238.219,-157.079 L 238.865,-159.067 L 239.91,-160.878 L 241.309,-162.431
 L 243,-163.66 L 244.91,-164.511 L 246.955,-164.945 L 249.045,-164.945 L 251.09,-164.511 L 253,-163.66
 L 254.691,-162.431 L 256.09,-160.878 L 257.135,-159.067 L 257.781,-157.079 L 258,-155 L 257.781,-152.921
 L 257.135,-150.933 L 256.09,-149.122 L 254.691,-147.569 L 253,-146.34 L 251.09,-145.489 L 249.045,-145.055
 z
M 221.955,-135.055 L 219.91,-135.489 L 218,-136.34 L 216.309,-137.569 L 214.91,-139.122 L 213.865,-140.933
 L 213.219,-142.921 L 213,-145 L 213.219,-147.079 L 213.865,-149.067 L 214.91,-150.878 L 216.309,-152.431
 L 218,-153.66 L 219.91,-154.511 L 221.955,-154.945 L 224.045,-154.945 L 226.09,-154.511 L 228,-153.66
 L 229.691,-152.431 L 231.09,-150.878 L 232.135,-149.067 L 232.781,-147.079 L 233,-145 L 232.781,-142.921
 L 232.135,-140.933 L 231.09,-139.122 L 229.691,-137.569 L 228,-136.34 L 226.09,-135.489 L 224.045,-135.055
 z
M 271.955,-135.055 L 269.91,-135.489 L 268,-136.34 L 266.309,-137.569 L 264.91,-139.122 L 263.865,-140.933
 L 263.219,-142.921 L 263,-145 L 263.219,-147.079 L 263.865,-149.067 L 264.91,-150.878 L 266.309,-152.431
 L 268,-153.66 L 269.91,-154.511 L 271.955,-154.945 L 274.045,-154.945 L 276.09,-154.511 L 278,-153.66
 L 279.691,-152.431 L 281.09,-150.878 L 282.135,-149.067 L 282.781,-147.079 L 283,-145 L 282.781,-142.921
 L 282.135,-140.933 L 281.09,-139.122 L 279.691,-137.569 L 278,-136.34 L 276.09,-135.489 L 274.045,-135.055
 z
M 196.955,-125.055 L 194.91,-125.489 L 193,-126.34 L 191.309,-127.569 L 189.91,-129.122 L 188.865,-130.933
 L 188.219,-132.921 L 188,-135 L 188.219,-137.079 L 188.865,-139.067 L 189.91,-140.878 L 191.309,-142.431
 L 193,-143.66 L 194.91,-144.511 L 196.955,-144.945 L 199.045,-144.945 L 201.09,-144.511 L 203,-143.66
 L 204.691,-142.431 L 206.09,-140.878 L 207.135,-139.067 L 207.781,-137.079 L 208,-135 L 207.781,-132.921
 L 207.135,-130.933 L 206.09,-129.122 L 204.691,-127.569 L 203,-126.34 L 201.09,-125.489 L 199.045,-125.055
 z
M 246.955,-115.055 L 244.91,-115.489 L 243,-116.34 L 241.309,-117.569 L 239.91,-119.122 L 238.865,-120.933
 L 238.219,-122.921 L 238,-125 L 238.219,-127.079 L 238.865,-129.067 L 239.91,-130.878 L 241.309,-132.431
 L 243,-133.66 L 244.91,-134.511 L 246.955,-134.945 L 249.045,-134.945 L 251.09,-134.511 L 253,-133.66
 L 254.691,-132.431 L 256.09,-130.878 L 257.135,-129.067 L 257.781,-127.079 L 258,-125 L 257.781,-122.921
 L 257.135,-120.933 L 256.09,-119.122 L 254.691,-117.569 L 253,-116.34 L 251.09,-115.489 L 249.045,-115.055
 z
M 49.25,-80 L 49.25,-130 L 99.25,-130 L 99.25,-80 z
M 221.955,-105.055 L 219.91,-105.489 L 218,-106.34 L 216.309,-107.569 L 214.91,-109.122 L 213.865,-110.933
 L 213.219,-112.921 L 213,-115 L 213.219,-117.079 L 213.865,-119.067 L 214.91,-120.878 L 216.309,-122.431
 L 218,-123.66 L 219.91,-124.511 L 221.955,-124.945 L 224.045,-124.945 L 226.09,-124.511 L 228,-123.66
 L 229.691,-122.431 L 231.09,-120.878 L 232.135,-119.067 L 232.781,-117.079 L 233,-115 L 232.781,-112.921
 L 232.135,-110.933 L 231.09,-109.122 L 229.691,-107.569 L 228,-106.34 L 226.09,-105.489 L 224.045,-105.055
 z
M 271.955,-105.055 L 269.91,-105.489 L 268,-106.34 L 266.309,-107.569 L 264.91,-109.122 L 263.865,-110.933
 L 263.219,-112.921 L 263,-115 L 263.219,-117.079 L 263.865,-119.067 L 264.91,-120.878 L 266.309,-122.431
 L 268,-123.66 L 269.91,-124.511 L 271.955,-124.945 L 274.045,-124.945 L 276.09,-124.511 L 278,-123.66
 L 279.691,-122.431 L 281.09,-120.878 L 282.135,-119.067 L 282.781,-117.079 L 283,-115 L 282.781,-112.921
 L 282.135,-110.933 L 281.09,-109.122 L 279.691,-107.569 L 278,-106.34 L 276.09,-105.489 L 274.045,-105.055
 z
M 196.955,-95.0548 L 194.91,-95.4894 L 193,-96.3398 L 191.309,-97.5686 L 189.91,-99.1222 L 188.865,-100.933
 L 188.219,-102.921 L 188,-105 L 188.219,-107.079 L 188.865,-109.067 L 189.91,-110.878 L 191.309,-112.431
 L 193,-113.66 L 194.91,-114.511 L 196.955,-114.945 L 199.045,-114.945 L 201.09,-114.511 L 203,-113.66
 L 204.691,-112.431 L 206.09,-110.878 L 207.135,-109.067 L 207.781,-107.079 L 208,-105 L 207.781,-102.921
 L 207.135,-100.933 L 206.09,-99.1222 L 204.691,-97.5686 L 203,-96.3398 L 201.09,-95.4894 L 199.045,-95.0548
 z
" stroke="black" fill="lightgray" stroke-width="0.5"/></svg>
